<mxfile host="app.diagrams.net" modified="2024-07-22T14:13:08.318Z" agent="Mozilla/5.0 (Windows NT 10.0; Win64; x64) AppleWebKit/537.36 (KHTML, like Gecko) Chrome/126.0.0.0 Safari/537.36" etag="WZqJ6autQnrRjOz47ZPu" version="24.6.4" type="github">
  <diagram id="R2lEEEUBdFMjLlhIrx00" name="Page-1">
    <mxGraphModel dx="1050" dy="530" grid="1" gridSize="10" guides="1" tooltips="1" connect="1" arrows="1" fold="1" page="1" pageScale="1" pageWidth="850" pageHeight="1100" math="0" shadow="0" extFonts="Permanent Marker^https://fonts.googleapis.com/css?family=Permanent+Marker">
      <root>
        <mxCell id="0" />
        <mxCell id="1" parent="0" />
        <mxCell id="gRgQLusVROS6CJ6pUms0-9" style="edgeStyle=orthogonalEdgeStyle;rounded=0;orthogonalLoop=1;jettySize=auto;html=1;" edge="1" parent="1" source="gRgQLusVROS6CJ6pUms0-1" target="gRgQLusVROS6CJ6pUms0-8">
          <mxGeometry relative="1" as="geometry" />
        </mxCell>
        <mxCell id="gRgQLusVROS6CJ6pUms0-14" style="edgeStyle=orthogonalEdgeStyle;rounded=0;orthogonalLoop=1;jettySize=auto;html=1;exitX=0.5;exitY=0;exitDx=0;exitDy=0;entryX=0;entryY=1;entryDx=0;entryDy=0;" edge="1" parent="1" source="gRgQLusVROS6CJ6pUms0-1" target="gRgQLusVROS6CJ6pUms0-4">
          <mxGeometry relative="1" as="geometry">
            <Array as="points">
              <mxPoint x="620" y="320" />
              <mxPoint x="620" y="280" />
              <mxPoint x="630" y="280" />
            </Array>
          </mxGeometry>
        </mxCell>
        <mxCell id="gRgQLusVROS6CJ6pUms0-1" value="訂單" style="rounded=0;whiteSpace=wrap;html=1;" vertex="1" parent="1">
          <mxGeometry x="560" y="330" width="120" height="60" as="geometry" />
        </mxCell>
        <mxCell id="gRgQLusVROS6CJ6pUms0-17" style="edgeStyle=orthogonalEdgeStyle;rounded=0;orthogonalLoop=1;jettySize=auto;html=1;" edge="1" parent="1" source="gRgQLusVROS6CJ6pUms0-2" target="gRgQLusVROS6CJ6pUms0-3">
          <mxGeometry relative="1" as="geometry">
            <mxPoint x="140" y="500" as="targetPoint" />
            <Array as="points">
              <mxPoint x="270" y="500" />
            </Array>
          </mxGeometry>
        </mxCell>
        <mxCell id="gRgQLusVROS6CJ6pUms0-18" value="運送餐點" style="edgeLabel;html=1;align=center;verticalAlign=middle;resizable=0;points=[];" vertex="1" connectable="0" parent="gRgQLusVROS6CJ6pUms0-17">
          <mxGeometry x="-0.4286" y="-1" relative="1" as="geometry">
            <mxPoint x="1" y="20" as="offset" />
          </mxGeometry>
        </mxCell>
        <mxCell id="gRgQLusVROS6CJ6pUms0-2" value="外送員" style="rounded=0;whiteSpace=wrap;html=1;" vertex="1" parent="1">
          <mxGeometry x="250" y="260" width="140" height="80" as="geometry" />
        </mxCell>
        <mxCell id="gRgQLusVROS6CJ6pUms0-5" style="edgeStyle=orthogonalEdgeStyle;rounded=0;orthogonalLoop=1;jettySize=auto;html=1;exitX=0.75;exitY=1;exitDx=0;exitDy=0;" edge="1" parent="1" source="gRgQLusVROS6CJ6pUms0-3" target="gRgQLusVROS6CJ6pUms0-1">
          <mxGeometry relative="1" as="geometry">
            <Array as="points">
              <mxPoint x="395" y="490" />
              <mxPoint x="620" y="490" />
            </Array>
          </mxGeometry>
        </mxCell>
        <mxCell id="gRgQLusVROS6CJ6pUms0-22" value="下定訂單" style="edgeLabel;html=1;align=center;verticalAlign=middle;resizable=0;points=[];" vertex="1" connectable="0" parent="gRgQLusVROS6CJ6pUms0-5">
          <mxGeometry x="0.6638" y="-1" relative="1" as="geometry">
            <mxPoint as="offset" />
          </mxGeometry>
        </mxCell>
        <mxCell id="gRgQLusVROS6CJ6pUms0-3" value="顧客" style="rounded=0;whiteSpace=wrap;html=1;" vertex="1" parent="1">
          <mxGeometry x="305" y="440" width="120" height="60" as="geometry" />
        </mxCell>
        <mxCell id="gRgQLusVROS6CJ6pUms0-13" style="edgeStyle=orthogonalEdgeStyle;rounded=0;orthogonalLoop=1;jettySize=auto;html=1;exitX=1;exitY=1;exitDx=0;exitDy=0;entryX=0.5;entryY=0;entryDx=0;entryDy=0;" edge="1" parent="1" source="gRgQLusVROS6CJ6pUms0-4" target="gRgQLusVROS6CJ6pUms0-8">
          <mxGeometry relative="1" as="geometry" />
        </mxCell>
        <mxCell id="gRgQLusVROS6CJ6pUms0-4" value="餐廳(店家)" style="rounded=0;whiteSpace=wrap;html=1;" vertex="1" parent="1">
          <mxGeometry x="620" y="140" width="120" height="80" as="geometry" />
        </mxCell>
        <mxCell id="gRgQLusVROS6CJ6pUms0-6" style="edgeStyle=orthogonalEdgeStyle;rounded=0;orthogonalLoop=1;jettySize=auto;html=1;entryX=0.023;entryY=0.64;entryDx=0;entryDy=0;entryPerimeter=0;" edge="1" parent="1" source="gRgQLusVROS6CJ6pUms0-2" target="gRgQLusVROS6CJ6pUms0-1">
          <mxGeometry relative="1" as="geometry" />
        </mxCell>
        <mxCell id="gRgQLusVROS6CJ6pUms0-19" value="接收頂單餐點" style="edgeLabel;html=1;align=center;verticalAlign=middle;resizable=0;points=[];" vertex="1" connectable="0" parent="gRgQLusVROS6CJ6pUms0-6">
          <mxGeometry x="0.0833" y="4" relative="1" as="geometry">
            <mxPoint x="33" y="-4" as="offset" />
          </mxGeometry>
        </mxCell>
        <mxCell id="gRgQLusVROS6CJ6pUms0-10" style="edgeStyle=orthogonalEdgeStyle;rounded=0;orthogonalLoop=1;jettySize=auto;html=1;" edge="1" parent="1" source="gRgQLusVROS6CJ6pUms0-8" target="gRgQLusVROS6CJ6pUms0-1">
          <mxGeometry relative="1" as="geometry" />
        </mxCell>
        <mxCell id="gRgQLusVROS6CJ6pUms0-12" style="edgeStyle=orthogonalEdgeStyle;rounded=0;orthogonalLoop=1;jettySize=auto;html=1;entryX=1;entryY=1;entryDx=0;entryDy=0;" edge="1" parent="1" source="gRgQLusVROS6CJ6pUms0-8" target="gRgQLusVROS6CJ6pUms0-4">
          <mxGeometry relative="1" as="geometry" />
        </mxCell>
        <mxCell id="gRgQLusVROS6CJ6pUms0-15" value="提供菜單&lt;div&gt;&lt;br&gt;&lt;/div&gt;" style="edgeLabel;html=1;align=center;verticalAlign=middle;resizable=0;points=[];" vertex="1" connectable="0" parent="gRgQLusVROS6CJ6pUms0-12">
          <mxGeometry x="-0.3333" y="2" relative="1" as="geometry">
            <mxPoint as="offset" />
          </mxGeometry>
        </mxCell>
        <mxCell id="gRgQLusVROS6CJ6pUms0-8" value="菜單項目" style="rounded=0;whiteSpace=wrap;html=1;" vertex="1" parent="1">
          <mxGeometry x="720" y="320" width="120" height="60" as="geometry" />
        </mxCell>
        <mxCell id="gRgQLusVROS6CJ6pUms0-11" style="edgeStyle=orthogonalEdgeStyle;rounded=0;orthogonalLoop=1;jettySize=auto;html=1;exitX=0;exitY=1;exitDx=0;exitDy=0;" edge="1" parent="1" source="gRgQLusVROS6CJ6pUms0-4">
          <mxGeometry relative="1" as="geometry">
            <mxPoint x="620" y="310" as="targetPoint" />
          </mxGeometry>
        </mxCell>
        <mxCell id="gRgQLusVROS6CJ6pUms0-16" value="接收訂單要求&lt;div&gt;&lt;br&gt;&lt;/div&gt;" style="edgeLabel;html=1;align=center;verticalAlign=middle;resizable=0;points=[];" vertex="1" connectable="0" parent="gRgQLusVROS6CJ6pUms0-11">
          <mxGeometry x="0.0113" y="2" relative="1" as="geometry">
            <mxPoint as="offset" />
          </mxGeometry>
        </mxCell>
        <mxCell id="gRgQLusVROS6CJ6pUms0-20" style="edgeStyle=orthogonalEdgeStyle;rounded=0;orthogonalLoop=1;jettySize=auto;html=1;exitX=0.75;exitY=1;exitDx=0;exitDy=0;entryX=0.563;entryY=1.007;entryDx=0;entryDy=0;entryPerimeter=0;" edge="1" parent="1" source="gRgQLusVROS6CJ6pUms0-3" target="gRgQLusVROS6CJ6pUms0-8">
          <mxGeometry relative="1" as="geometry">
            <Array as="points">
              <mxPoint x="395" y="490" />
              <mxPoint x="788" y="490" />
            </Array>
          </mxGeometry>
        </mxCell>
        <mxCell id="gRgQLusVROS6CJ6pUms0-21" value="查閱菜單項目" style="edgeLabel;html=1;align=center;verticalAlign=middle;resizable=0;points=[];" vertex="1" connectable="0" parent="gRgQLusVROS6CJ6pUms0-20">
          <mxGeometry x="0.7143" y="3" relative="1" as="geometry">
            <mxPoint as="offset" />
          </mxGeometry>
        </mxCell>
        <mxCell id="gRgQLusVROS6CJ6pUms0-23" value="" style="rounded=0;whiteSpace=wrap;html=1;" vertex="1" parent="1">
          <mxGeometry x="300" y="590" width="120" height="60" as="geometry" />
        </mxCell>
      </root>
    </mxGraphModel>
  </diagram>
</mxfile>
